<svg width="87.000000" height="24.000000" viewBox="0 0 87 24" fill="none" xmlns="http://www.w3.org/2000/svg" xmlns:xlink="http://www.w3.org/1999/xlink">
	<desc>
			Created with Pixso.
	</desc>
	<defs/>
	<path id="&amp;lt;/POF&amp;gt;" d="M9.36 0L5.19 0L0 11.45L5.19 23.2L9.36 23.2L4.14 11.45L9.36 0ZM81.78 23.2L87 11.45L81.78 0L77.63 0L82.85 11.45L77.63 23.2L81.78 23.2ZM14.67 24L22.54 0.84L18.84 0.84L10.89 24L14.67 24ZM35.78 1.88C35.13 1.66 34.45 1.54 33.74 1.54L24.26 1.54L24.26 23.24L28.15 23.24L28.15 14.27L33.74 14.27C34.5 14.27 35.21 14.15 35.89 13.91C36.47 13.68 37.19 13.28 37.65 12.88C37.78 12.78 37.89 12.67 38 12.56C38.14 12.41 38.27 12.25 38.4 12.09C38.74 11.66 39.02 11.19 39.25 10.67C39.33 10.49 39.4 10.31 39.46 10.13C39.65 9.58 39.74 9 39.74 8.4L39.74 7.44C39.74 6.92 39.67 6.42 39.53 5.94C39.45 5.66 39.36 5.4 39.25 5.14C38.96 4.47 38.58 3.89 38.12 3.39C38.04 3.3 37.84 3.1 37.75 3.02C37.27 2.6 36.72 2.26 36.1 2C35.99 1.95 35.89 1.92 35.78 1.88ZM52.53 1.73C52.04 1.6 51.54 1.54 51.03 1.54L48.5 1.54C47.84 1.54 47.2 1.63 46.6 1.82C46.38 1.89 46.18 1.97 46 2.04C45.46 2.27 44.97 2.55 44.54 2.89C44.34 3.05 44.14 3.23 43.96 3.41C43.42 3.96 42.92 4.67 42.59 5.41C42.48 5.66 42.39 5.9 42.31 6.14C42.14 6.7 42.06 7.29 42.06 7.9L42.06 16.94C42.06 17.57 42.15 18.18 42.34 18.76C42.41 18.97 42.5 19.18 42.59 19.4C42.87 20.03 43.23 20.6 43.68 21.1C43.77 21.21 43.87 21.31 43.96 21.4C44.11 21.55 44.27 21.7 44.42 21.83C44.89 22.21 45.41 22.52 46 22.77C46.17 22.84 46.35 22.91 46.53 22.97C47.16 23.15 47.82 23.24 48.5 23.24L51.03 23.24C51.55 23.24 52.07 23.18 52.58 23.06C52.89 22.99 53.19 22.89 53.48 22.77C54.07 22.51 54.6 22.19 55.08 21.81C55.24 21.69 55.38 21.55 55.52 21.4C55.74 21.19 55.94 20.97 56.13 20.74C56.43 20.33 56.7 19.88 56.91 19.4C56.99 19.21 57.06 19.02 57.12 18.8C57.32 18.21 57.42 17.59 57.42 16.94L57.42 7.9C57.42 7.27 57.33 6.67 57.15 6.1C57.08 5.87 57.01 5.64 56.91 5.41C56.65 4.82 56.32 4.29 55.92 3.82C55.79 3.67 55.66 3.53 55.52 3.41C55.35 3.23 55.17 3.06 54.97 2.91C54.52 2.56 54.02 2.27 53.48 2.04C53.17 1.91 52.86 1.8 52.53 1.73ZM60.53 23.24L64.26 23.24L64.26 14.2L75.76 14.2L75.76 10.56L64.17 10.56L64.17 5.21L75.71 5.21L75.71 1.54L60.53 1.54L60.53 23.24ZM28.15 10.47L28.15 5.35L33.09 5.35C33.99 5.35 34.64 5.57 35.06 6.01C35.12 6.08 35.25 6.21 35.31 6.3C35.62 6.74 35.78 7.28 35.78 7.92C35.78 8.66 35.59 9.25 35.22 9.7C34.79 10.14 34.02 10.47 33.09 10.47L28.15 10.47ZM53.11 6.6C53.34 7.02 53.46 7.52 53.46 8.08L53.46 16.71C53.46 17.27 53.34 17.76 53.11 18.19C53.02 18.37 52.91 18.54 52.79 18.69C52.62 18.9 52.42 19.08 52.19 19.21C51.85 19.4 51.44 19.49 50.98 19.49L48.52 19.49C48.08 19.49 47.68 19.4 47.34 19.21C47.11 19.08 46.9 18.9 46.72 18.69C46.59 18.54 46.48 18.37 46.39 18.19C46.18 17.76 46.07 17.27 46.07 16.71L46.07 8.08C46.07 7.52 46.18 7.02 46.42 6.6C46.51 6.43 46.61 6.28 46.72 6.14C46.9 5.93 47.11 5.76 47.34 5.62C47.68 5.44 48.08 5.35 48.52 5.35L50.98 5.35C51.44 5.35 51.85 5.44 52.21 5.64C52.43 5.76 52.62 5.93 52.79 6.14C52.91 6.28 53.02 6.43 53.11 6.6Z" fill="#2990CE" fill-opacity="1.000000" fill-rule="evenodd"/>
</svg>
